<svg xmlns="http://www.w3.org/2000/svg" viewBox="0 0 1000 730" role="img" aria-label="Miski Warmi">
<g transform="translate(0.000000,730.000000) scale(0.100000,-0.100000)"
fill="currentColor" stroke="none">
<path d="M9685 7210 c-21 -6 -133 -115 -345 -332 -173 -178 -414 -423 -535
-546 -120 -122 -222 -226 -225 -231 -6 -10 -632 -650 -1024 -1048 -154 -156
-287 -283 -296 -283 -10 0 -76 60 -146 132 -158 163 -340 351 -385 399 -46 49
-405 424 -554 579 -66 68 -124 130 -130 136 -12 13 -393 410 -541 564 -171
178 -270 283 -320 342 -88 103 -143 129 -222 107 -59 -15 -106 -62 -737 -729
-49 -52 -127 -133 -171 -180 -45 -47 -99 -103 -119 -125 -21 -22 -74 -78 -119
-125 -275 -288 -452 -475 -461 -485 -5 -6 -55 -58 -110 -116 -55 -57 -183
-191 -284 -296 -128 -134 -190 -193 -205 -193 -15 0 -369 348 -1221 1201 -660
660 -1212 1207 -1227 1215 -44 23 -127 18 -170 -11 -74 -50 -68 276 -68 -3547
0 -3784 -5 -3479 63 -3525 93 -62 155 -42 277 89 52 57 195 204 316 328 122
124 246 254 277 290 30 36 108 117 174 181 65 64 176 176 247 250 71 74 230
238 355 364 124 127 276 282 338 345 61 63 144 146 183 183 55 52 71 73 68 92
-2 15 -143 164 -415 439 -275 276 -413 422 -413 436 0 26 97 150 117 150 19 0
153 -131 632 -615 212 -214 602 -606 866 -870 554 -555 615 -620 615 -660 0
-36 -666 -705 -701 -705 -34 0 -82 55 -69 79 18 35 88 111 275 301 251 256
270 286 222 340 -57 65 -100 71 -136 22 -11 -15 -67 -74 -126 -132 -59 -58
-170 -169 -248 -247 -95 -97 -148 -143 -163 -143 -28 0 -67 31 -94 75 l-21 34
27 42 c15 24 141 156 280 294 291 288 289 285 214 357 -23 21 -50 38 -60 38
-12 0 -117 -97 -277 -258 -347 -346 -342 -343 -407 -272 -64 71 -80 49 328
473 105 109 193 208 194 219 4 24 -73 108 -100 108 -27 0 -253 -216 -493 -473
-74 -78 -107 -107 -125 -107 -32 0 -86 38 -106 76 l-17 32 46 58 c26 33 136
146 246 252 185 179 281 291 281 331 0 20 -77 91 -99 91 -9 0 -87 -71 -173
-158 -85 -86 -224 -222 -308 -302 -152 -144 -240 -245 -240 -274 0 -32 202
-245 796 -841 218 -219 268 -263 297 -269 66 -12 117 12 191 88 22 23 207 212
411 421 205 209 450 461 546 560 95 99 238 245 318 325 80 80 229 232 330 338
102 106 192 192 202 192 9 0 56 -44 104 -98 85 -94 168 -181 474 -497 81 -83
223 -229 316 -326 351 -361 663 -686 715 -744 146 -159 249 -254 285 -261 98
-18 118 -3 454 335 474 478 731 754 731 785 0 17 -59 95 -124 166 -28 31 -73
80 -100 110 -27 30 -109 118 -182 195 -73 77 -142 151 -154 165 -12 13 -96
103 -188 200 -628 660 -888 911 -926 897 -8 -3 -48 -48 -89 -99 -41 -51 -169
-190 -284 -308 -200 -205 -306 -316 -440 -460 -34 -36 -88 -94 -121 -130 l-61
-65 -73 75 c-109 110 -178 192 -184 218 -11 42 77 140 680 752 328 332 421
429 467 489 43 54 1 90 479 -409 118 -123 267 -278 330 -344 63 -66 163 -170
221 -231 59 -60 149 -155 200 -210 89 -96 345 -355 1289 -1310 234 -236 515
-523 624 -637 109 -114 212 -214 229 -223 68 -34 150 -10 201 58 l21 28 3
3441 c2 3418 2 3442 -18 3482 -35 72 -126 110 -205 86z m-9182 -498 c108 -109
197 -205 197 -214 0 -50 -378 -408 -416 -394 -16 6 -17 27 -11 239 4 128 7
307 7 400 0 129 3 167 13 167 7 0 101 -89 210 -198z m9184 -193 c2 -223 -1
-390 -6 -399 -13 -20 -394 360 -389 388 4 23 369 402 383 398 6 -2 11 -141 12
-387z m-4628 243 c20 -21 70 -76 111 -122 115 -128 195 -214 312 -335 58 -60
132 -137 163 -170 233 -245 485 -507 630 -655 94 -96 229 -238 300 -315 71
-77 204 -216 295 -310 167 -171 279 -296 470 -524 58 -69 236 -258 396 -420
314 -319 384 -395 384 -414 0 -25 -125 -165 -376 -423 -81 -83 -96 -81 -194
24 -40 42 -111 118 -159 167 -47 50 -129 138 -181 195 -52 58 -120 132 -150
165 -30 32 -59 64 -65 71 -75 85 -231 252 -360 384 -88 91 -197 205 -240 254
-44 50 -87 97 -95 106 -8 9 -89 93 -180 186 -91 93 -213 221 -270 284 -355
387 -753 798 -807 831 -61 38 -55 42 -328 -246 -99 -104 -227 -239 -285 -300
-114 -118 -289 -303 -305 -321 -5 -6 -48 -52 -96 -100 -47 -49 -170 -179 -274
-289 -194 -205 -271 -285 -465 -485 -163 -168 -175 -192 -117 -247 45 -42 73
-56 95 -44 9 5 80 76 157 158 77 81 199 209 271 283 72 74 158 164 191 200
116 127 339 366 418 450 45 47 117 123 160 170 463 498 515 550 546 550 17 0
43 -22 94 -77 38 -43 131 -141 205 -218 75 -77 183 -192 240 -255 166 -181
229 -249 315 -340 45 -47 108 -114 140 -150 33 -36 136 -141 229 -235 94 -93
206 -210 251 -260 44 -49 136 -148 205 -219 69 -72 139 -144 155 -162 17 -17
75 -78 130 -135 55 -57 160 -167 234 -244 74 -77 184 -192 245 -255 284 -296
356 -370 561 -584 510 -533 547 -566 572 -522 12 20 163 186 265 290 110 112
127 144 101 189 -22 38 -65 61 -98 53 -13 -3 -83 -69 -156 -146 -141 -150
-154 -157 -195 -113 -14 16 -37 41 -51 56 l-27 29 19 36 c11 21 75 92 142 160
68 67 123 127 123 133 0 44 -76 119 -120 119 -11 0 -81 -60 -160 -135 -77 -74
-152 -138 -165 -141 -31 -8 -101 46 -130 99 l-19 35 30 39 c16 21 87 99 159
173 124 128 161 168 232 250 l31 34 34 -26 c43 -33 284 -272 563 -558 567
-582 511 -520 518 -574 10 -73 8 -289 -3 -306 -7 -12 -64 39 -273 248 -180
179 -270 262 -285 262 -27 0 -92 -56 -92 -81 0 -10 47 -67 104 -126 57 -59
121 -126 141 -148 20 -22 112 -116 204 -210 198 -202 200 -207 208 -397 5
-105 3 -129 -8 -133 -14 -5 -115 93 -641 627 -203 207 -216 215 -272 163 -50
-46 -37 -88 59 -195 91 -102 715 -730 827 -833 26 -24 26 -27 29 -171 2 -104
-1 -150 -9 -158 -14 -14 -122 93 -742 732 -189 195 -549 560 -800 811 -440
441 -511 513 -670 684 -41 44 -142 152 -225 240 -82 87 -157 166 -165 175 -21
23 -131 141 -215 230 -38 42 -131 141 -205 220 -240 258 -300 319 -656 680
-338 342 -632 642 -688 705 -85 94 -274 278 -294 286 -34 13 -80 -10 -132 -68
-53 -60 -157 -170 -329 -348 -69 -72 -209 -223 -311 -335 -101 -113 -297 -320
-436 -460 -138 -140 -278 -284 -310 -320 -121 -135 -252 -260 -272 -260 -16 0
-175 131 -207 172 -27 34 -157 172 -332 352 -132 136 -193 206 -193 221 0 26
56 92 239 280 75 78 201 215 281 305 79 91 147 167 150 170 3 3 39 41 80 85
41 44 183 193 316 330 254 263 330 345 409 435 26 30 182 192 345 360 414 426
551 568 596 620 91 104 100 107 153 52z m4196 -478 c44 -48 109 -114 145 -148
36 -33 116 -111 178 -171 l112 -111 0 -154 c0 -85 -5 -162 -10 -170 -10 -17
-32 3 -343 315 -206 206 -339 353 -335 371 5 22 139 154 157 154 9 0 52 -39
96 -86z m-8341 -19 c43 -42 66 -72 66 -87 0 -25 -664 -698 -688 -698 -9 0 -12
46 -12 178 l0 177 73 55 c39 30 156 137 259 239 193 189 205 201 224 201 6 0
41 -29 78 -65z m8012 -266 c67 -60 109 -103 394 -395 75 -77 186 -186 248
-244 l113 -105 2 -180 c1 -129 -1 -180 -9 -180 -17 0 -535 514 -711 705 -83
91 -181 193 -217 228 -36 34 -66 66 -66 71 0 11 156 161 168 161 5 0 41 -28
78 -61z m-7710 -1 c41 -44 74 -93 74 -110 0 -7 -53 -67 -117 -133 -489 -506
-557 -577 -722 -752 -79 -84 -150 -153 -157 -153 -11 0 -14 33 -14 172 l0 172
68 60 c37 32 200 193 362 356 449 452 447 451 506 388z m7379 -244 c40 -61
182 -213 535 -569 435 -439 538 -547 551 -582 12 -31 12 -283 -1 -303 -10 -17
-309 282 -700 700 -164 175 -374 382 -400 394 -31 14 -118 -69 -465 -444 -38
-41 -138 -145 -222 -230 -83 -85 -163 -169 -178 -187 -36 -45 -96 -90 -128
-98 -24 -6 -35 1 -97 66 -38 41 -69 81 -69 89 -1 19 36 57 485 517 198 202
427 437 509 521 81 83 151 152 155 152 4 0 15 -12 25 -26z m-6629 -496 c529
-532 634 -643 634 -667 0 -9 -19 -36 -42 -61 -24 -25 -117 -124 -207 -220 -91
-96 -231 -245 -311 -330 -196 -209 -295 -314 -490 -519 -91 -96 -176 -186
-190 -200 -14 -15 -63 -67 -110 -116 -268 -283 -475 -502 -650 -690 -183 -197
-304 -316 -317 -311 -10 4 -13 39 -13 146 l0 141 152 162 c84 89 223 233 308
319 213 215 287 292 425 443 65 72 146 159 178 195 33 36 155 162 271 280 307
313 393 413 382 447 -3 10 -120 134 -259 276 -278 284 -283 287 -328 223 -23
-32 -356 -378 -746 -776 -94 -96 -184 -189 -200 -207 -110 -124 -149 -163
-159 -163 -14 0 -30 265 -19 302 8 22 112 131 736 763 179 181 344 354 368
383 24 29 51 57 61 62 21 11 43 -10 434 -412 147 -153 277 -280 289 -284 22
-7 129 98 124 123 -1 6 -49 60 -107 120 -58 60 -181 189 -274 288 -369 393
-466 478 -493 431 -4 -7 -61 -70 -127 -140 -65 -69 -127 -136 -138 -148 -11
-13 -149 -154 -306 -314 -158 -159 -345 -350 -416 -422 -72 -73 -135 -131
-141 -128 -27 10 -33 184 -10 261 14 44 39 74 223 260 114 115 367 374 562
574 406 416 390 401 405 401 6 0 231 -222 501 -492z m6636 -132 c7 -7 175
-177 372 -377 197 -200 437 -443 531 -539 l173 -175 6 -168 c8 -206 3 -213
-82 -121 -74 79 -623 645 -843 868 -154 157 -180 179 -197 170 -35 -16 -503
-478 -508 -501 -7 -28 38 -87 179 -233 56 -58 127 -133 157 -166 30 -33 80
-86 110 -119 30 -33 102 -111 160 -174 58 -63 112 -122 120 -131 31 -33 225
-245 235 -256 6 -6 35 -38 65 -70 30 -33 102 -111 160 -174 57 -63 170 -181
250 -262 180 -183 190 -201 197 -366 5 -144 -3 -163 -49 -112 -17 19 -79 85
-137 145 -109 113 -252 264 -395 415 -142 150 -633 656 -886 915 -364 371
-510 529 -510 552 0 8 82 99 183 201 202 206 445 456 582 600 90 94 104 102
127 78z m-3532 -263 c24 -27 174 -181 334 -343 487 -494 811 -830 814 -846 6
-25 -71 -109 -522 -564 -193 -195 -401 -409 -461 -475 -155 -168 -212 -225
-227 -225 -16 0 -197 184 -452 460 -38 41 -189 199 -336 350 -265 273 -369
384 -397 427 -22 32 -7 51 192 255 94 96 208 215 255 264 47 49 135 141 195
204 450 471 518 540 540 540 14 0 38 -18 65 -47z m-3535 -365 c75 -69 215
-225 215 -240 0 -15 -217 -245 -799 -843 -516 -530 -661 -674 -668 -663 -15
25 -24 543 -10 577 7 17 90 109 183 204 189 192 699 717 880 905 64 67 120
122 124 122 4 0 38 -28 75 -62z m7060 24 c6 -4 46 -47 89 -97 44 -49 285 -296
535 -548 251 -251 459 -465 463 -475 12 -31 9 -620 -4 -628 -6 -4 -27 11 -51
37 -22 24 -73 80 -115 124 -79 84 -111 118 -357 380 -82 88 -195 207 -250 265
-124 130 -262 275 -295 311 -14 14 -50 53 -80 85 -31 33 -89 97 -130 144 -41
47 -81 89 -87 93 -33 21 -12 54 119 183 133 131 144 140 163 126z m-5202
-1616 c581 -580 1057 -1061 1057 -1069 0 -38 -171 -220 -202 -215 -19 4 -228
208 -1260 1235 -422 420 -773 763 -780 763 -17 0 -108 -88 -108 -105 0 -7 381
-390 846 -851 1197 -1186 1174 -1163 1174 -1189 0 -20 -159 -184 -185 -191
-21 -5 -149 120 -972 944 -1196 1198 -1170 1170 -1151 1205 6 12 77 90 157
173 80 83 189 196 241 252 52 55 102 101 110 101 8 1 491 -473 1073 -1053z
m388 517 c101 -105 159 -168 494 -528 76 -82 225 -238 331 -345 232 -236 264
-272 264 -296 0 -22 -238 -264 -259 -264 -18 0 -101 80 -521 500 -538 538
-690 701 -690 740 0 46 226 290 269 290 9 0 60 -44 112 -97z m4539 -107 c59
-51 110 -112 110 -135 0 -32 -54 -98 -245 -297 -213 -222 -230 -228 -325 -133
-47 47 -67 100 -42 111 4 2 54 57 112 123 57 66 107 122 110 125 3 3 52 58
108 123 112 128 118 130 172 83z m-6872 -373 c25 -27 172 -178 327 -338 314
-323 338 -350 333 -367 -9 -25 -245 -268 -763 -785 -517 -516 -1027 -1036
-1033 -1054 -2 -5 -10 -9 -18 -9 -11 0 -14 25 -14 133 l0 133 79 70 c44 38
198 188 343 335 516 520 578 586 578 609 0 48 -78 118 -118 106 -10 -4 -209
-197 -442 -431 -233 -234 -429 -424 -436 -421 -26 10 -31 236 -6 283 9 17 112
130 228 250 375 389 454 476 454 497 0 17 -75 112 -94 119 -28 11 -62 -21
-285 -263 -153 -167 -276 -290 -289 -290 -28 0 -30 268 -1 326 14 30 173 196
507 531 268 269 505 511 526 538 39 49 65 75 75 75 2 0 25 -21 49 -47z m5221
-409 c241 -241 306 -315 306 -348 0 -46 -59 -107 -718 -755 -194 -192 -167
-187 -290 -54 l-78 84 18 30 c37 63 334 398 548 617 147 151 144 145 81 215
-50 53 -69 49 -151 -31 -87 -84 -366 -371 -420 -432 -22 -25 -60 -68 -85 -95
-25 -28 -60 -69 -79 -93 -48 -60 -71 -57 -141 16 -75 79 -88 106 -69 137 66
110 822 915 859 915 7 0 106 -93 219 -206z m495 -505 c17 -12 48 -43 70 -68
39 -46 93 -105 241 -261 260 -274 365 -393 365 -412 0 -23 -38 -66 -82 -94
l-40 -25 -52 40 c-29 23 -122 112 -208 198 -350 356 -349 356 -404 298 -60
-64 -65 -56 195 -320 248 -252 320 -342 306 -385 -9 -27 -82 -90 -106 -90 -25
0 -71 42 -351 319 -251 249 -257 252 -295 229 -37 -22 -58 -59 -50 -89 8 -28
39 -63 271 -309 213 -225 266 -287 266 -313 0 -45 -136 -134 -152 -99 -14 30
-549 542 -566 542 -28 0 -91 -66 -85 -88 6 -23 40 -62 197 -222 227 -232 326
-355 326 -403 0 -42 -53 -78 -95 -64 -38 13 -685 681 -685 707 0 21 72 100
186 202 124 111 206 193 434 433 124 130 172 183 224 248 44 54 48 55 90 26z"/>
<path d="M4929 6367 c-30 -29 -88 -91 -129 -137 -100 -114 -262 -283 -705
-740 -99 -102 -228 -234 -286 -295 -57 -60 -143 -150 -191 -200 -47 -49 -105
-110 -128 -135 -23 -25 -72 -76 -109 -115 -36 -38 -129 -137 -206 -220 -77
-82 -163 -175 -191 -205 -88 -94 -149 -162 -157 -176 -8 -14 95 -134 116 -134
5 0 28 19 51 43 119 122 276 287 391 412 72 76 164 175 206 220 42 44 138 148
214 230 179 194 285 304 591 615 275 278 387 396 513 538 45 51 90 92 100 92
17 0 100 -81 337 -330 61 -63 156 -162 211 -220 56 -58 110 -115 120 -127 11
-12 116 -122 234 -244 248 -257 217 -225 299 -314 35 -38 129 -139 209 -224
80 -85 153 -162 161 -171 8 -9 47 -50 85 -91 39 -41 108 -115 154 -164 47 -50
112 -119 146 -155 33 -36 132 -141 220 -235 87 -93 187 -199 221 -235 94 -100
112 -119 181 -202 36 -43 70 -78 76 -78 15 0 117 95 117 108 0 9 -39 62 -60
82 -3 3 -23 25 -44 50 -32 36 -154 172 -201 224 -5 6 -59 65 -119 131 -61 66
-162 176 -225 244 -64 69 -143 154 -177 190 -89 97 -356 383 -379 407 -11 11
-58 61 -105 110 -47 49 -130 137 -185 194 -55 58 -181 191 -280 295 -99 105
-227 239 -285 300 -58 60 -109 115 -115 121 -5 6 -85 89 -176 185 -91 96 -195
206 -230 244 -179 196 -183 198 -270 112z"/>
<path d="M4957 4502 c-26 -26 -47 -55 -47 -64 0 -18 110 -134 482 -512 170
-172 238 -248 238 -264 0 -21 -77 -104 -502 -534 -54 -54 -104 -98 -111 -98
-17 0 -44 26 -217 211 -128 137 -217 232 -323 344 -50 53 -64 84 -50 108 20
36 297 323 325 338 12 6 25 6 36 0 21 -11 332 -330 332 -339 0 -4 -16 -25 -36
-47 -20 -22 -43 -50 -51 -62 -23 -34 -43 -28 -101 28 -60 60 -60 58 -27 89 14
13 25 26 25 30 0 14 -67 80 -82 80 -17 0 -148 -134 -148 -152 0 -21 283 -298
304 -298 11 0 40 21 64 48 24 26 93 98 153 159 60 62 109 120 109 130 0 9
-105 123 -232 252 -313 317 -295 301 -344 301 -38 0 -46 -5 -120 -83 -43 -46
-153 -161 -244 -256 -91 -95 -171 -186 -179 -201 -22 -44 -6 -76 82 -169 691
-727 685 -721 726 -721 31 0 63 30 415 386 209 213 389 398 398 413 23 33 22
59 0 93 -42 63 -797 838 -817 838 -6 0 -32 -22 -58 -48z"/>
<path d="M1385 2648 c-22 -10 -65 -67 -65 -86 0 -11 47 -69 136 -165 67 -72
134 -160 134 -176 0 -47 -101 -137 -138 -124 -32 12 -90 68 -186 180 -96 112
-120 133 -150 133 -20 0 -96 -75 -96 -94 0 -26 146 -197 336 -395 80 -84 82
-85 105 -69 80 54 369 347 369 373 0 35 -360 409 -410 427 -8 3 -24 1 -35 -4z"/>
</g>
</svg>
